<svg id="eodnKs0txez1" xmlns="http://www.w3.org/2000/svg" xmlns:xlink="http://www.w3.org/1999/xlink" viewBox="0 0 1270 100" shape-rendering="geometricPrecision" text-rendering="geometricPrecision"><line x1="4" y1="50" x2="4" y2="50" stroke="#fff" stroke-width="8" stroke-linecap="square"/><line x1="20" y1="50" x2="20" y2="50" stroke="#fff" stroke-width="8" stroke-linecap="square"/><line x1="36" y1="50" x2="36" y2="50" stroke="#fff" stroke-width="8" stroke-linecap="square"/><line x1="52" y1="50" x2="52" y2="50" stroke="#fff" stroke-width="8" stroke-linecap="square"/><line x1="68" y1="50" x2="68" y2="50" stroke="#fff" stroke-width="8" stroke-linecap="square"/><line x1="84" y1="50" x2="84" y2="50" stroke="#fff" stroke-width="8" stroke-linecap="square"/><line x1="100" y1="50" x2="100" y2="50" stroke="#fff" stroke-width="8" stroke-linecap="square"/><line x1="116" y1="50" x2="116" y2="50" stroke="#fff" stroke-width="8" stroke-linecap="square"/><line x1="132" y1="50" x2="132" y2="50" stroke="#fff" stroke-width="8" stroke-linecap="square"/><line x1="148" y1="50" x2="148" y2="50" stroke="#fff" stroke-width="8" stroke-linecap="square"/><line x1="164" y1="50" x2="164" y2="50" stroke="#fff" stroke-width="8" stroke-linecap="square"/><line x1="180" y1="50" x2="180" y2="50" stroke="#fff" stroke-width="8" stroke-linecap="square"/><line x1="196" y1="50" x2="196" y2="50" stroke="#fff" stroke-width="8" stroke-linecap="square"/><line x1="212" y1="50" x2="212" y2="50" stroke="#fff" stroke-width="8" stroke-linecap="square"/><line x1="228" y1="50" x2="228" y2="50" stroke="#fff" stroke-width="8" stroke-linecap="square"/><line x1="244" y1="50" x2="244" y2="50" stroke="#fff" stroke-width="8" stroke-linecap="square"/><line x1="260" y1="50" x2="260" y2="50" stroke="#fff" stroke-width="8" stroke-linecap="square"/><line x1="276" y1="50" x2="276" y2="50" stroke="#fff" stroke-width="8" stroke-linecap="square"/><line x1="292" y1="50" x2="292" y2="50" stroke="#fff" stroke-width="8" stroke-linecap="square"/><line x1="308" y1="50" x2="308" y2="50" stroke="#fff" stroke-width="8" stroke-linecap="square"/><line x1="324" y1="50" x2="324" y2="50" stroke="#fff" stroke-width="8" stroke-linecap="square"/><line x1="340" y1="50" x2="340" y2="50" stroke="#fff" stroke-width="8" stroke-linecap="square"/><line x1="356" y1="50" x2="356" y2="50" stroke="#fff" stroke-width="8" stroke-linecap="square"/><line x1="372" y1="50" x2="372" y2="50" stroke="#fff" stroke-width="8" stroke-linecap="square"/><line x1="388" y1="50" x2="388" y2="50" stroke="#fff" stroke-width="8" stroke-linecap="square"/><line x1="404" y1="50" x2="404" y2="50" stroke="#fff" stroke-width="8" stroke-linecap="square"/><line x1="420" y1="50" x2="420" y2="50" stroke="#fff" stroke-width="8" stroke-linecap="square"/><line x1="436" y1="50" x2="436" y2="50" stroke="#fff" stroke-width="8" stroke-linecap="square"/><line x1="452" y1="50" x2="452" y2="50" stroke="#fff" stroke-width="8" stroke-linecap="square"/><line x1="468" y1="50" x2="468" y2="50" stroke="#fff" stroke-width="8" stroke-linecap="square"/><line x1="484" y1="50" x2="484" y2="50" stroke="#fff" stroke-width="8" stroke-linecap="square"/><line x1="500" y1="50" x2="500" y2="50" stroke="#fff" stroke-width="8" stroke-linecap="square"/><line x1="516" y1="50" x2="516" y2="50" stroke="#fff" stroke-width="8" stroke-linecap="square"/><line x1="532" y1="50" x2="532" y2="50" stroke="#fff" stroke-width="8" stroke-linecap="square"/><line x1="548" y1="50" x2="548" y2="50" stroke="#fff" stroke-width="8" stroke-linecap="square"/><line x1="564" y1="50" x2="564" y2="50" stroke="#fff" stroke-width="8" stroke-linecap="square"/><line x1="580" y1="50" x2="580" y2="50" stroke="#fff" stroke-width="8" stroke-linecap="square"/><line x1="596" y1="50" x2="596" y2="50" stroke="#fff" stroke-width="8" stroke-linecap="square"/><line x1="612" y1="50" x2="612" y2="50" stroke="#fff" stroke-width="8" stroke-linecap="square"/><line x1="628" y1="50" x2="628" y2="50" stroke="#fff" stroke-width="8" stroke-linecap="square"/><line x1="644" y1="50" x2="644" y2="50" stroke="#fff" stroke-width="8" stroke-linecap="square"/><line x1="660" y1="50" x2="660" y2="50" stroke="#fff" stroke-width="8" stroke-linecap="square"/><line x1="676" y1="50" x2="676" y2="50" stroke="#fff" stroke-width="8" stroke-linecap="square"/><line x1="692" y1="50" x2="692" y2="50" stroke="#fff" stroke-width="8" stroke-linecap="square"/><line x1="708" y1="50" x2="708" y2="50" stroke="#fff" stroke-width="8" stroke-linecap="square"/><line x1="724" y1="50" x2="724" y2="50" stroke="#fff" stroke-width="8" stroke-linecap="square"/><line x1="740" y1="50" x2="740" y2="50" stroke="#fff" stroke-width="8" stroke-linecap="square"/><line x1="756" y1="50" x2="756" y2="50" stroke="#fff" stroke-width="8" stroke-linecap="square"/><line x1="772" y1="50" x2="772" y2="50" stroke="#fff" stroke-width="8" stroke-linecap="square"/><line x1="788" y1="50" x2="788" y2="50" stroke="#fff" stroke-width="8" stroke-linecap="square"/><line x1="804" y1="50" x2="804" y2="50" stroke="#fff" stroke-width="8" stroke-linecap="square"/><line x1="820" y1="50" x2="820" y2="50" stroke="#fff" stroke-width="8" stroke-linecap="square"/><line x1="836" y1="50" x2="836" y2="50" stroke="#fff" stroke-width="8" stroke-linecap="square"/><line x1="852" y1="50" x2="852" y2="50" stroke="#fff" stroke-width="8" stroke-linecap="square"/><line x1="868" y1="50" x2="868" y2="50" stroke="#fff" stroke-width="8" stroke-linecap="square"/><line x1="884" y1="50" x2="884" y2="50" stroke="#fff" stroke-width="8" stroke-linecap="square"/><line x1="900" y1="50" x2="900" y2="50" stroke="#fff" stroke-width="8" stroke-linecap="square"/><line x1="916" y1="50" x2="916" y2="50" stroke="#fff" stroke-width="8" stroke-linecap="square"/><line x1="932" y1="50" x2="932" y2="50" stroke="#fff" stroke-width="8" stroke-linecap="square"/><line x1="948" y1="50" x2="948" y2="50" stroke="#fff" stroke-width="8" stroke-linecap="square"/><line x1="964" y1="50" x2="964" y2="50" stroke="#fff" stroke-width="8" stroke-linecap="square"/><line x1="980" y1="50" x2="980" y2="50" stroke="#fff" stroke-width="8" stroke-linecap="square"/><line x1="996" y1="50" x2="996" y2="50" stroke="#fff" stroke-width="8" stroke-linecap="square"/><line x1="1012" y1="50" x2="1012" y2="50" stroke="#fff" stroke-width="8" stroke-linecap="square"/><line x1="1028" y1="50" x2="1028" y2="50" stroke="#fff" stroke-width="8" stroke-linecap="square"/><line x1="1044" y1="50" x2="1044" y2="50" stroke="#fff" stroke-width="8" stroke-linecap="square"/><line x1="1060" y1="50" x2="1060" y2="50" stroke="#fff" stroke-width="8" stroke-linecap="square"/><line x1="1076" y1="50" x2="1076" y2="50" stroke="#fff" stroke-width="8" stroke-linecap="square"/><line x1="1092" y1="50" x2="1092" y2="50" stroke="#fff" stroke-width="8" stroke-linecap="square"/><line x1="1108" y1="50" x2="1108" y2="50" stroke="#fff" stroke-width="8" stroke-linecap="square"/><line x1="1124" y1="50" x2="1124" y2="50" stroke="#fff" stroke-width="8" stroke-linecap="square"/><line x1="1140" y1="50" x2="1140" y2="50" stroke="#fff" stroke-width="8" stroke-linecap="square"/><line x1="1156" y1="50" x2="1156" y2="50" stroke="#fff" stroke-width="8" stroke-linecap="square"/><line x1="1172" y1="50" x2="1172" y2="50" stroke="#fff" stroke-width="8" stroke-linecap="square"/><line x1="1188" y1="50" x2="1188" y2="50" stroke="#fff" stroke-width="8" stroke-linecap="square"/><line x1="1204" y1="50" x2="1204" y2="50" stroke="#fff" stroke-width="8" stroke-linecap="square"/><line x1="1220" y1="50" x2="1220" y2="50" stroke="#fff" stroke-width="8" stroke-linecap="square"/><line x1="1236" y1="50" x2="1236" y2="50" stroke="#fff" stroke-width="8" stroke-linecap="square"/></svg>
