<?xml version="1.0" encoding="UTF-8"?>
<!DOCTYPE svg PUBLIC "-//W3C//DTD SVG 1.1//EN" "http://www.w3.org/Graphics/SVG/1.1/DTD/svg11.dtd">
<!-- Creator: CorelDRAW -->
<svg xmlns="http://www.w3.org/2000/svg" xml:space="preserve" width="175mm" height="174.3mm" version="1.1" style="shape-rendering:geometricPrecision; text-rendering:geometricPrecision; image-rendering:optimizeQuality; fill-rule:evenodd; clip-rule:evenodd"
viewBox="0 0 17500.04 17430.02"
 xmlns:xlink="http://www.w3.org/1999/xlink">
 <defs>
  <style type="text/css">
   <![CDATA[
    .fil0 {fill:white}
   ]]>
  </style>
 </defs>
 <g id="Capa_x0020_1">
  <metadata id="CorelCorpID_0Corel-Layer"/>
  <path class="fil0" d="M8750.01 0c-4812.51,0 -8750.01,3928.75 -8750.01,8767.51 0,4375 3202.5,8006.26 7385.01,8662.51l0 -6125.01 -2222.5 0 0 -2537.5 2222.5 0 0 -1933.75c0,-2196.25 1303.75,-3403.75 3307.5,-3403.75 953.75,0 1951.25,166.25 1951.25,166.25l0 2161.25 -1102.5 0c-1085,0 -1426.25,673.75 -1426.25,1365l0 1645 2432.5 0 -393.75 2537.5 -2038.75 0 0 6125.01c4251.86,-670.57 7385.03,-4337.86 7385.03,-8642.9 0,-6.41 0,-12.82 0,-19.23 -0.02,-4839.14 -3937.52,-8767.89 -8750.03,-8767.89z"/>
 </g>
</svg>
