<svg viewBox="0 0 20 20" xmlns="http://www.w3.org/2000/svg"><path d="m9.999.001c-2.716 0-3.057.012-4.123.061-1.064.049-1.791.217-2.426.465-.657.254-1.215.597-1.772 1.152-.555.557-.898 1.114-1.154 1.773-.248.635-.417 1.362-.464 2.426-.048 1.067-.06 1.408-.06 4.123s.012 3.056.061 4.122c.049 1.064.218 1.791.465 2.427.256.658.597 1.216 1.154 1.771.555.557 1.113.899 1.77 1.154.637.248 1.362.416 2.427.464 1.067.049 1.407.061 4.122.061s3.055-.012 4.123-.061c1.065-.049 1.792-.217 2.428-.464.657-.256 1.215-.599 1.77-1.154.557-.555.898-1.114 1.154-1.771.246-.636.414-1.364.465-2.427.047-1.067.061-1.407.061-4.123s-.012-3.056-.061-4.123c-.05-1.064-.219-1.791-.465-2.427-.256-.658-.597-1.216-1.154-1.771-.557-.557-1.112-.898-1.77-1.154-.638-.248-1.365-.416-2.43-.464-1.067-.049-1.405-.061-4.122-.061zm-.896 1.803h.897c2.669 0 2.986.009 4.04.057.975.045 1.505.207 1.857.344.467.181.799.398 1.149.747.349.349.566.684.749 1.15.137.352.299.882.344 1.856.047 1.055.058 1.37.058 4.039s-.011 2.986-.058 4.039c-.045.975-.207 1.504-.344 1.856-.181.467-.398.799-.749 1.148-.349.349-.683.566-1.149.747-.352.138-.882.301-1.857.344-1.054.047-1.371.058-4.04.058s-2.986-.011-4.04-.058c-.975-.045-1.505-.209-1.857-.345-.467-.181-.8-.398-1.15-.747-.349-.349-.566-.682-.749-1.15-.137-.352-.299-.882-.344-1.856-.047-1.055-.057-1.37-.057-4.042s.009-2.985.057-4.038c.045-.975.207-1.504.344-1.856.181-.467.398-.8.749-1.15.349-.347.682-.564 1.149-.745.352-.138.882-.301 1.857-.345.923-.043 1.28-.055 3.144-.057zm6.235 1.66c-.662 0-1.2.536-1.2 1.2 0 .662.538 1.2 1.2 1.2s1.2-.538 1.2-1.2-.537-1.2-1.2-1.2zm-5.339 1.403c-2.836 0-5.136 2.299-5.136 5.136s2.3 5.135 5.136 5.135 5.134-2.298 5.134-5.135-2.298-5.136-5.134-5.136zm0 1.802c1.841 0 3.333 1.492 3.333 3.334 0 1.84-1.493 3.334-3.333 3.334s-3.333-1.492-3.333-3.334 1.493-3.334 3.333-3.334z" fill="#fff"/></svg>