<svg viewBox="0 0 320 202" xmlns="http://www.w3.org/2000/svg"><path d="m52.74 139.26 14.25-1.17 2.73-12.69c.39-1.89.08-3.44-.93-4.67s-4.28-1.61-6.12-1.46l-.57.05-32.25 9.28 1.46-6.74-14.25 1.17-10.33 48.8 14.25-1.17 5.75-27.14 26.84-7.79zm86.66-24.36c-1.01-1.23-2.43-1.77-4.27-1.61l-53.22 4.39c-1.84.15-3.55.95-5.14 2.39s-2.58 3.11-2.97 4.99l-7.5 35.15c-.39 1.89-.07 3.44.97 4.67s2.48 1.76 4.31 1.61l.57-.05 47.09-13.47-2.05 9.76 14.25-1.17 8.86-41.98c.42-1.89.11-3.45-.9-4.68zm-17.02 23.13-39.76 11.33 3.8-17.67 38.01-3.13zm3.11-31.2c2.58-2.38 4.2-5.14 4.85-8.27l6.13-28.34c.65-3.13.08-5.55-1.69-7.26-1.78-1.71-4.13-2.76-7.07-3.15l-72.08-10.27 1.13-5.34 75.62-6.23c3.05-.25 5.89-1.57 8.52-3.96 2.64-2.39 4.28-5.15 4.93-8.28l2.74-12.95-99.26 8.18c-3.05.25-5.89 1.57-8.53 3.96s-4.28 5.15-4.93 8.28l-5.97 28.32c-.65 3.13-.08 5.55 1.69 7.25 1.77 1.71 4.08 2.76 6.91 3.17l72.07 10.28-1.13 5.34-75.47 6.06c-3.05.25-5.89 1.57-8.52 3.96-2.64 2.39-4.28 5.15-4.93 8.28l-2.75 13.11 99.26-8.18c3.08-.25 5.89-1.57 8.48-3.96zm41.63-71.73-10.33 48.56-19.69 1.62-2.74 12.95c-.65 3.13-.11 5.71 1.61 7.74s4.1 2.92 7.15 2.67l51.99-4.29 2.74-12.95c.65-3.13.11-5.71-1.61-7.74s-4.11-2.92-7.15-2.67l-8.67.71 13.08-61.51c.65-3.13.13-5.71-1.53-7.75-1.67-2.03-4.03-2.93-7.07-2.68l-20.48 1.69c-3.05.25-6.44 1.43-9.07 3.82-2.64 2.39-4.28 5.34-4.92 8.47l-2.79 12.95zm65.95 72.08c-1.01-1.23-2.43-1.77-4.27-1.61l-12.35 1.02-3.12 14.64 4.75-.39-7.21 34.16 14.25-1.17 8.86-41.98c.4-1.88.09-3.44-.91-4.67zm68.56-7.67-55.38 4.56c-1.84.15-3.55.95-5.14 2.39s-2.58 3.11-2.97 4.99l-7.5 35.15c-.39 1.89-.07 3.44.97 4.67s2.48 1.76 4.31 1.61l55.38-4.56c1.84-.15 3.53-.95 5.09-2.39s2.53-3.1 2.92-4.99l7.5-35.15c.39-1.89.08-3.44-.93-4.67-.99-1.23-2.42-1.77-4.25-1.61zm-14.91 34.8-40.18 3.31 4.19-19.53 40.18-3.31zm31.48-96.48c-1.72-2.03-4.11-2.92-7.15-2.67l-4.73.39 5.33-25.09c.65-3.13.13-5.71-1.53-7.75-1.67-2.03-4.03-2.93-7.07-2.68l-72.47 5.97c-3.05.25-5.89 1.57-8.52 3.96-2.64 2.39-4.28 5.15-4.93 8.28l-4.36 21.03 23.63-1.95 1.62-8.08 47.27-3.9-2.58 12.14-28.36 2.34c-3.05.25-5.86 1.57-8.45 3.96s-4.25 5.15-5 8.28l-2.74 12.95 55.14-4.54-2.58 12.14-75.62 6.23c-3.05.25-5.86 1.57-8.45 3.96s-4.2 5.14-4.85 8.27l-5.67 26.77-43-6.05-.52-.01c-1.84.15-3.6 1.01-5.19 2.45s-2.58 3.11-2.97 4.99l-7.5 35.15c-.39 1.89-.07 3.44.97 4.67s2.48 1.76 4.31 1.61l53.22-4.39c1.84-.15 3.53-.95 5.09-2.39s2.53-3.1 2.92-4.99l9.82-46.05 85.02-7.01c3.05-.25 5.86-1.57 8.45-3.96 2.58-2.38 4.2-5.14 4.85-8.27l8.07-38.04c.74-3.1.25-5.68-1.47-7.72zm-127.34 104.44-38.01 3.13 3.8-17.67 36.26 5.07zm-187.57 46.8c-.36.33-.59.71-.68 1.14l-.86 3.89c-.09.43-.02.76.21 1 .24.23.55.38.93.43l9.71 1.4-.16.73-10.2.84c-.41.03-.8.22-1.16.55s-.59.71-.68 1.14l-.4 1.81 13.41-1.14c.41-.03.79-.22 1.15-.54.35-.33.58-.71.67-1.14l.88-3.89c.09-.43.02-.76-.21-1-.24-.23-.55-.38-.95-.43l-9.71-1.4.16-.73 10.22-.87c.41-.04.8-.22 1.16-.55s.59-.71.68-1.14l.4-1.78-13.41 1.14c-.42.03-.8.21-1.16.54zm161.94-14.2-3.19.27-2.63 11.79c-.09.43-.03.78.2 1.06s.55.4.96.37l11.28-.96.72-3.34-9.58.81zm78.11 3.19-2.55.22-1.39-9.7-3.39.29 1.61 11.43c.03.42.13.77.3 1.06.16.28.45.41.86.37l5.11-.43c.41-.04.76-.21 1.05-.54.29-.32.55-.7.77-1.15l6.86-12.15-3.39.29zm-42.43 6.87 3.19-.27 2.95-13.35-3.19.27zm77.78-8.13c-.09.43-.03.78.2 1.06s.55.4.96.37l11.28-.96.4-1.78c.09-.43.03-.78-.2-1.06s-.55-.4-.96-.37l-8.09.69.37-1.67 8.52-.72.74-3.34-8.52.72.37-1.67 8.09-.69c.41-.04.8-.22 1.16-.55s.59-.71.68-1.14l.4-1.78-12.77 1.09zm-149.97 10.99-.21.02c-.41.04-.79.22-1.15.54-.35.33-.58.71-.67 1.14l-.07.22c-.09.43-.03.79.2 1.06.23.28.55.4.96.37l.21-.02c.41-.04.79-.22 1.15-.54.35-.33.58-.71.67-1.14l.07-.22c.09-.43.03-.78-.2-1.06s-.55-.4-.96-.37zm-31.67-2.22-.64.05.77-3.45c.09-.43.03-.78-.19-1.06s-.54-.4-.95-.37l-9.79.83c-.41.04-.8.22-1.16.55s-.59.71-.68 1.14l-.63 2.89 3.19-.27.23-1.11 6.39-.54-.37 1.67-3.83.33c-.41.04-.79.22-1.15.54-.35.33-.58.71-.69 1.14l-.4 1.78 7.45-.63-.37 1.67-10.22.87c-.41.03-.79.22-1.15.54-.35.33-.58.71-.67 1.14l-.4 1.78 13.41-1.14c.41-.04.79-.22 1.15-.54.35-.33.58-.71.67-1.14l1.16-5.23c.11-.43.05-.79-.18-1.07-.22-.28-.54-.4-.95-.37zm-45.34 8.76-1.17.1 1.88-8.45c.09-.43.03-.78-.19-1.06s-.54-.4-.95-.37l-2.77.24c-.41.04-.8.22-1.16.55s-.59.71-.68 1.14l-.4 1.78 2.56-.22-1.49 6.67-2.66.23-.4 1.78c-.09.43-.03.79.2 1.06.23.28.55.4.96.37l7.03-.6.4-1.78c.09-.43.03-.78-.2-1.06-.23-.29-.55-.41-.96-.38z" fill="#fff"/></svg>