<svg viewBox="0 0 32 32" xmlns="http://www.w3.org/2000/svg"><path d="m29.091 1.887c-1.607 0-2.909 1.303-2.909 2.909 0 1.607 1.303 2.909 2.909 2.909 1.606.001 2.909-1.302 2.909-2.909 0-1.606-1.303-2.909-2.909-2.909zm-2.954 18.855c.75-1.022 1.125-2.658 1.125-4.839v-1.704c0-1.295-.136-2.317-.375-3.101s-.647-1.465-1.227-2.079c-.613-.579-1.295-.988-2.113-1.261-.818-.239-1.84-.375-3.101-.375h-20.446v22.729h5.691v-7.395h10.904l4.975 7.395h6.372l-5.486-7.429c1.704-.271 2.931-.919 3.681-1.941zm-4.567-4.737c0 .682-.17 1.125-.443 1.363-.273.239-.818.341-1.602.341h-13.834v-5.316h13.835c.784 0 1.329.136 1.602.375.273.238.443.682.443 1.329v1.908z" fill="#fff"/></svg>