<svg viewBox="0 0 20 20" xmlns="http://www.w3.org/2000/svg"><path d="m1.374 8.848c5.367-2.338 8.946-3.879 10.736-4.624 5.112-2.126 6.175-2.496 6.867-2.508.152-.003.493.035.713.214.366.304.317.968.293 1.223-.277 2.911-1.476 9.975-2.086 13.235-.258 1.38-.766 1.842-1.258 1.887-1.069.098-1.881-.707-2.916-1.385-1.62-1.062-2.536-1.723-4.108-2.76-1.818-1.198-.639-1.856.397-2.932.271-.282 4.981-4.566 5.073-4.955.011-.049.022-.23-.086-.325s-.267-.063-.381-.037c-.163.037-2.751 1.748-7.765 5.132-.735.504-1.4.75-1.996.737-.657-.014-1.922-.372-2.862-.677-1.154-.373-2.07-.571-1.99-1.208.041-.331.498-.67 1.369-1.017z" fill="#fff"/></svg>