<svg viewBox="0 0 56 64" xmlns="http://www.w3.org/2000/svg"><path d="m52.78 14.963c-3.31-.698-6.217-2.481-8.363-4.932v-.001c-2.357-2.689-3.773-6.196-3.773-10.03h-11.049l-.015 44.088c-.179 4.933-4.264 8.901-9.259 8.901-3.101 0-5.83-1.531-7.529-3.849-1.103-1.516-1.759-3.373-1.759-5.394 0-5.097 4.16-9.243 9.274-9.243.954 0 1.878.163 2.743.431v-11.233c-.895-.119-1.804-.193-2.743-.193-.164 0-.313.015-.477.015-10.974.237-19.83 9.212-19.83 20.223 0 5.32 2.072 10.164 5.457 13.79 3.712 3.967 9.005 6.464 14.865 6.464 11.197 0 20.321-9.079 20.321-20.254v-22.363c4.324 3.091 9.631 4.918 15.357 4.918v-10.996c-1.118 0-2.192-.119-3.22-.342z" fill="#fff"/></svg>