<?xml version="1.0" encoding="UTF-8"?>
<!DOCTYPE svg PUBLIC "-//W3C//DTD SVG 1.1//EN" "http://www.w3.org/Graphics/SVG/1.1/DTD/svg11.dtd">
<!-- Creator: CorelDRAW -->
<svg xmlns="http://www.w3.org/2000/svg" xml:space="preserve" width="174.125mm" height="175mm" version="1.1" style="shape-rendering:geometricPrecision; text-rendering:geometricPrecision; image-rendering:optimizeQuality; fill-rule:evenodd; clip-rule:evenodd"
viewBox="0 0 17412.5 17500"
 xmlns:xlink="http://www.w3.org/1999/xlink">
 <defs>
  <style type="text/css">
   <![CDATA[
    .fil0 {fill:white}
   ]]>
  </style>
 </defs>
 <g id="Capa_x0020_1">
  <metadata id="CorelCorpID_0Corel-Layer"/>
  <g>
   <path class="fil0" d="M8741.25 0c-4777.5,0 -8671.25,3893.75 -8671.25,8671.25 0,1531.25 402.5,3018.75 1155,4331.25l-1225 4497.5 4593.75 -1207.5c1268.75,691.25 2695,1058.75 4147.5,1058.75 4777.5,0 8671.25,-3893.75 8671.25,-8671.25 0,-2318.75 -901.25,-4497.5 -2537.5,-6133.75 -1636.25,-1645 -3815,-2546.25 -6133.75,-2546.25l0 0zm8.75 1461.25c1925,0 3727.5,752.5 5092.5,2117.5 1356.25,1365 2108.75,3176.25 2108.75,5101.25 0,3972.5 -3237.5,7201.25 -7210,7201.25 -1295,0 -2563.75,-341.25 -3666.25,-1006.25l-262.5 -148.75 -2730 717.5 726.25 -2660 -175 -280c-717.5,-1128.75 -1102.5,-2467.5 -1102.5,-3832.5 8.75,-3972.5 3237.5,-7210 7218.75,-7210l0 0zm-3080 3202.5c-140,0 -376.25,52.5 -577.5,271.25 -192.5,218.75 -761.25,752.5 -761.25,1811.25 0,1067.5 778.75,2091.25 875,2240 122.5,148.75 1540,2336.25 3718.75,3263.75 516.25,236.25 918.75,367.5 1233.75,463.75 516.25,166.25 988.75,140 1365,87.5 420,-61.25 1277.5,-525 1461.25,-1032.5 183.75,-507.5 183.75,-936.25 131.25,-1032.5 -61.25,-87.5 -201.25,-140 -420,-236.25 -218.75,-122.5 -1286.25,-647.5 -1478.75,-717.5 -201.25,-70 -323.75,-105 -490,105 -140,218.75 -560,708.75 -682.5,848.75 -131.25,148.75 -253.75,166.25 -463.75,61.25 -227.5,-113.75 -927.5,-341.25 -1750,-1076.25 -647.5,-577.5 -1076.25,-1286.25 -1207.5,-1505 -105,-210 -8.75,-341.25 96.25,-437.5 96.25,-96.25 236.25,-253.75 323.75,-385 113.75,-122.5 148.75,-218.75 218.75,-358.75 70,-148.75 35,-271.25 -17.5,-376.25 -52.5,-96.25 -490,-1181.25 -673.75,-1610 -175,-420 -350,-367.5 -490,-376.25 -122.5,0 -262.5,-8.75 -411.25,-8.75z"/>
  </g>
 </g>
</svg>
